<svg width="246.972412109375px" height="147.2px" xmlns="http://www.w3.org/2000/svg" viewBox="126.5137939453125 1.4000000000000057 246.972412109375 147.2" style="background: rgba(0, 0, 0, 0);" preserveAspectRatio="xMidYMid"><defs><linearGradient id="editing-shiny-gradient" x1="0.04322727117869957" x2="0.9567727288213004" y1="0.2966316784620999" y2="0.7033683215379001" gradientUnits="objectBoundingBox"><stop offset="0.0" stop-color="#ffb200"></stop><stop offset="0.5" stop-color="#e10057"></stop><stop offset="1.0" stop-color="#5A1A80"></stop></linearGradient><linearGradient id="editing-shiny-gradient2" x1="0" x2="0" y1="0" y2="1"><stop offset="0.2" stop-color="#fff" stop-opacity="0.8"></stop><stop offset="0.8" stop-color="#fff" stop-opacity="0"></stop></linearGradient><filter id="editing-shiny2" x="-100%" y="-100%" width="300%" height="300%"><feMorphology operator="erode" radius="2"></feMorphology></filter><filter id="editing-shiny" x="-100%" y="-100%" width="300%" height="300%"><feFlood flood-color="#fff" result="flood"></feFlood><feConvolveMatrix in="SourceGraphic" result="conv" order="8,8" divisor="1" kernelMatrix="0 0 0 0 0 0 0 0 0 0 0 1 1 0 0 0 0 0 0 1 1 0 0 0 0 0 1 0 0 1 0 0 0 0 1 0 0 1 0 0 0 1 0 0 0 0 1 0 0 1 1 0 0 1 1 0 0 0 0 1 1 0 0 0 "></feConvolveMatrix><feOffset dx="0" dy="4" in="conv" result="offset"></feOffset><feComposite operator="in" in="flood" in2="offset" result="comp"></feComposite><feGaussianBlur in="offset" stdDeviation="3" result="shadow"></feGaussianBlur><feColorMatrix in="shadow" type="matrix" values="0.7 0 0 0 0  0 0.7 0 0 0  0 0 0.7 0 0  0 0 0 0.3 0" result="dark-shadow"></feColorMatrix><feOffset dx="0" dy="4" in="dark-shadow" result="offset-shadow"></feOffset><feOffset dx="0" dy="2" in="conv" result="offset-2"></feOffset><feComposite operator="out" in="offset" in2="offset-2" result="edge-diff"></feComposite><feGaussianBlur in="edge-diff" stdDeviation="1" result="edge-blur"></feGaussianBlur><feColorMatrix in="edge-blur" result="edge-shadow" type="matrix" values="0 0 0 0 0  0 0 0 0 0  0 0 0 0 0  0 0 0 0.5 0"></feColorMatrix><feComposite operator="in" in="edge-shadow" in2="offset" result="edge-shadow-in"></feComposite><feOffset dx="0" dy="1" in="edge-shadow-in" result="edge-shadow-final"></feOffset><feMerge result="out"><feMergeNode in="offset-shadow"></feMergeNode><feMergeNode in="comp"></feMergeNode><feMergeNode in="edge-shadow-final"></feMergeNode><feMergeNode in="SourceGraphic"></feMergeNode></feMerge></filter></defs><g filter="url(#editing-shiny)"><g transform="translate(170.19937133789062, 101.47000122070312)"><path d="M38.16-1.28L38.34-1.16L38.34-1.16Q38.16-0.78 37.50-0.02L37.50-0.02L37.50-0.02Q36.84 0.75 35.89 1.52L35.89 1.52L35.89 1.52Q34.94 2.28 33.70 2.84L33.70 2.84L33.70 2.84Q32.47 3.41 31.09 3.41L31.09 3.41L31.09 3.41Q29.34 3.41 27.77 2.41L27.77 2.41L27.77 2.41Q26.19 1.41 24.77-0.06L24.77-0.06L24.77-0.06Q23.34-1.53 22.08-3.22L22.08-3.22L22.08-3.22Q20.81-4.91 19.66-6.28L19.66-6.28L19.66-6.28Q19.16-6.19 18.66-6.17L18.66-6.17L18.66-6.17Q18.16-6.16 17.66-6.16L17.66-6.16L17.66-6.16Q16.75-6.16 16-6.27L16-6.27L16-6.27Q15.25-6.38 14.72-6.66L14.72-6.66L14.72-6.66Q14.56-4.88 14.42-3.09L14.42-3.09L14.42-3.09Q14.28-1.31 14.09 0.50L14.09 0.50L14.09 0.50Q14.09 0.94 13.73 1.14L13.73 1.14L13.73 1.14Q13.38 1.34 12.94 1.34L12.94 1.34L12.94 1.34Q12.59 1.34 12.31 1.22L12.31 1.22L12.31 1.22Q12.03 1.09 12.03 0.91L12.03 0.91L12.03 0.91Q12.03 0.69 12.34 0.44L12.34 0.44L12.34 0.44Q13.03-10.19 13.42-20.91L13.42-20.91L13.42-20.91Q13.81-31.63 14.16-42.63L14.16-42.63L14.16-42.63Q11.38-41.72 8.89-40.36L8.89-40.36L8.89-40.36Q6.41-39 4.55-37.23L4.55-37.23L4.55-37.23Q2.69-35.47 1.59-33.38L1.59-33.38L1.59-33.38Q0.50-31.28 0.50-28.94L0.50-28.94L0.50-28.94Q0.50-28.16 0.67-27.50L0.67-27.50L0.67-27.50Q0.84-26.84 1.09-26.33L1.09-26.33L1.09-26.33Q1.34-25.81 1.61-25.45L1.61-25.45L1.61-25.45Q1.88-25.09 2.06-24.91L2.06-24.91L1.66-24.63L1.66-24.63Q1.50-24.81 1.22-25.20L1.22-25.20L1.22-25.20Q0.94-25.59 0.67-26.19L0.67-26.19L0.67-26.19Q0.41-26.78 0.20-27.56L0.20-27.56L0.20-27.56Q0-28.34 0-29.31L0-29.31L0-29.31Q0-32.06 1.17-34.45L1.17-34.45L1.17-34.45Q2.34-36.84 4.31-38.78L4.31-38.78L4.31-38.78Q6.28-40.72 8.86-42.20L8.86-42.20L8.86-42.20Q11.44-43.69 14.22-44.69L14.22-44.69L14.22-44.69Q14.28-45.75 14.31-46.81L14.31-46.81L14.31-46.81Q14.34-47.88 14.41-48.97L14.41-48.97L14.41-48.97Q14.41-49.25 14.81-49.39L14.81-49.39L14.81-49.39Q15.22-49.53 15.63-49.53L15.63-49.53L15.63-49.53Q15.97-49.53 16.23-49.44L16.23-49.44L16.23-49.44Q16.50-49.34 16.50-49.16L16.50-49.16L16.50-49.16Q16.50-49.03 16.38-48.91L16.38-48.91L16.38-48.91Q16.31-48 16.28-47.09L16.28-47.09L16.28-47.09Q16.25-46.19 16.19-45.31L16.19-45.31L16.19-45.31Q20.19-46.41 23.75-46.41L23.75-46.41L23.75-46.41Q26.97-46.41 29.86-45.53L29.86-45.53L29.86-45.53Q32.75-44.66 34.94-42.80L34.94-42.80L34.94-42.80Q37.13-40.94 38.41-38.05L38.41-38.05L38.41-38.05Q39.69-35.16 39.69-31.09L39.69-31.09L39.69-31.09Q39.69-28.63 39.03-26.02L39.03-26.02L39.03-26.02Q38.38-23.41 37.19-20.91L37.19-20.91L37.19-20.91Q36-18.41 34.34-16.09L34.34-16.09L34.34-16.09Q32.69-13.78 30.66-11.89L30.66-11.89L30.66-11.89Q28.63-10 26.31-8.61L26.31-8.61L26.31-8.61Q24-7.22 21.50-6.59L21.50-6.59L21.50-6.59Q22.72-5.38 23.89-3.95L23.89-3.95L23.89-3.95Q25.06-2.53 26.31-1.33L26.31-1.33L26.31-1.33Q27.56-0.13 28.98 0.67L28.98 0.67L28.98 0.67Q30.41 1.47 32.13 1.47L32.13 1.47L32.13 1.47Q33.06 1.47 34.02 1.22L34.02 1.22L34.02 1.22Q34.97 0.97 35.78 0.58L35.78 0.58L35.78 0.58Q36.59 0.19 37.23-0.31L37.23-0.31L37.23-0.31Q37.88-0.81 38.16-1.28L38.16-1.28ZM16.13-43.13L16.13-43.13L16.13-43.13Q15.84-34.81 15.67-26.50L15.67-26.50L15.67-26.50Q15.50-18.19 14.91-9.53L14.91-9.53L14.91-9.53Q15.06-9.59 15.25-9.63L15.25-9.63L15.25-9.63Q15.44-9.66 15.69-9.66L15.69-9.66L15.69-9.66Q17.13-9.66 18.34-9.05L18.34-9.05L18.34-9.05Q19.56-8.44 20.69-7.44L20.69-7.44L20.69-7.44Q23.16-7.91 25.36-9.03L25.36-9.03L25.36-9.03Q27.56-10.16 29.44-11.80L29.44-11.80L29.44-11.80Q31.31-13.44 32.81-15.47L32.81-15.47L32.81-15.47Q34.31-17.50 35.38-19.78L35.38-19.78L35.38-19.78Q36.44-22.06 37-24.48L37-24.48L37-24.48Q37.56-26.91 37.56-29.31L37.56-29.31L37.56-29.31Q37.56-32.47 36.78-35.17L36.78-35.17L36.78-35.17Q36-37.88 34.28-39.84L34.28-39.84L34.28-39.84Q32.56-41.81 29.81-42.92L29.81-42.92L29.81-42.92Q27.06-44.03 23.09-44.03L23.09-44.03L23.09-44.03Q19.66-44.03 16.13-43.13ZM17.66-7.16L17.66-7.16L17.66-7.16Q17.97-7.16 18.25-7.16L18.25-7.16L18.25-7.16Q18.53-7.16 18.81-7.22L18.81-7.22L18.81-7.22Q18.09-7.94 17.44-8.42L17.44-8.42L17.44-8.42Q16.78-8.91 16.19-8.91L16.19-8.91L16.19-8.91Q15.63-8.91 15.30-8.69L15.30-8.69L15.30-8.69Q14.97-8.47 14.97-8.13L14.97-8.13L14.97-8.13Q14.97-7.69 15.77-7.42L15.77-7.42L15.77-7.42Q16.56-7.16 17.66-7.16ZM49.28-15.44L49.28-15.44L49.28-15.44Q49.69-15.34 49.69-14.91L49.69-14.91L49.69-14.91Q49.69-14.78 49.61-14.58L49.61-14.58L49.61-14.58Q49.53-14.38 49.42-14.17L49.42-14.17L49.42-14.17Q49.31-13.97 49.19-13.83L49.19-13.83L49.19-13.83Q49.06-13.69 48.97-13.69L48.97-13.69L48.97-13.69Q48.81-13.69 48.59-13.80L48.59-13.80L48.59-13.80Q48.38-13.91 47.97-14.05L47.97-14.05L47.97-14.05Q47.56-14.19 46.91-14.30L46.91-14.30L46.91-14.30Q46.25-14.41 45.19-14.41L45.19-14.41L45.19-14.41Q43.69-14.41 42.69-13.84L42.69-13.84L42.69-13.84Q41.69-13.28 41.69-12.28L41.69-12.28L41.69-12.28Q41.69-11.56 42.30-11.08L42.30-11.08L42.30-11.08Q42.91-10.59 43.73-10.31L43.73-10.31L43.73-10.31Q44.56-10.03 45.42-9.91L45.42-9.91L45.42-9.91Q46.28-9.78 46.75-9.78L46.75-9.78L46.75-9.78Q47.09-9.78 47.20-9.67L47.20-9.67L47.20-9.67Q47.31-9.56 47.31-9.47L47.31-9.47L47.31-9.47Q47.31-9.22 47.11-9.17L47.11-9.17L47.11-9.17Q46.91-9.13 46.59-9.03L46.59-9.03L46.59-9.03Q45.78-8.75 44.94-8.33L44.94-8.33L44.94-8.33Q44.09-7.91 43.39-7.33L43.39-7.33L43.39-7.33Q42.69-6.75 42.25-6.03L42.25-6.03L42.25-6.03Q41.81-5.31 41.81-4.47L41.81-4.47L41.81-4.47Q41.81-3.06 42.95-2.14L42.95-2.14L42.95-2.14Q44.09-1.22 46.16-1.22L46.16-1.22L46.16-1.22Q48.50-1.22 50.06-1.92L50.06-1.92L50.06-1.92Q51.63-2.63 52.64-3.56L52.64-3.56L52.64-3.56Q53.66-4.50 54.22-5.45L54.22-5.45L54.22-5.45Q54.78-6.41 55.06-6.91L55.06-6.91L55.25-6.78L55.25-6.78Q54.72-5.25 53.89-3.94L53.89-3.94L53.89-3.94Q53.06-2.63 51.89-1.67L51.89-1.67L51.89-1.67Q50.72-0.72 49.16-0.17L49.16-0.17L49.16-0.17Q47.59 0.38 45.59 0.38L45.59 0.38L45.59 0.38Q44.38 0.38 43.34 0.08L43.34 0.08L43.34 0.08Q42.31-0.22 41.56-0.75L41.56-0.75L41.56-0.75Q40.81-1.28 40.41-2.06L40.41-2.06L40.41-2.06Q40-2.84 40-3.84L40-3.84L40-3.84Q40-5 40.53-5.84L40.53-5.84L40.53-5.84Q41.06-6.69 41.75-7.23L41.75-7.23L41.75-7.23Q42.44-7.78 43.11-8.08L43.11-8.08L43.11-8.08Q43.78-8.38 44.06-8.50L44.06-8.50L44.06-8.50Q43.09-8.66 42.34-9.03L42.34-9.03L42.34-9.03Q41.72-9.38 41.19-9.98L41.19-9.98L41.19-9.98Q40.66-10.59 40.66-11.66L40.66-11.66L40.66-11.66Q40.66-12.63 41.13-13.42L41.13-13.42L41.13-13.42Q41.59-14.22 42.39-14.75L42.39-14.75L42.39-14.75Q43.19-15.28 44.23-15.58L44.23-15.58L44.23-15.58Q45.28-15.88 46.47-15.88L46.47-15.88L46.47-15.88Q47.16-15.88 47.86-15.78L47.86-15.78L47.86-15.78Q48.56-15.69 49.28-15.44ZM53.56-3.53L53.19-3.78L53.19-3.78Q54.25-5.47 55.09-7.23L55.09-7.23L55.09-7.23Q55.94-9 56.50-10.69L56.50-10.69L56.50-10.69Q55.75-11.75 55.23-12.86L55.23-12.86L55.23-12.86Q54.72-13.97 54.72-15.16L54.72-15.16L54.72-15.16Q54.72-16.31 54.94-17.25L54.94-17.25L54.94-17.25Q55.16-18.19 55.53-18.84L55.53-18.84L55.53-18.84Q55.91-19.50 56.38-19.86L56.38-19.86L56.38-19.86Q56.84-20.22 57.34-20.22L57.34-20.22L57.34-20.22Q58.03-20.22 58.45-19.53L58.45-19.53L58.45-19.53Q58.88-18.84 58.81-17.78L58.81-17.78L58.81-17.78Q58.75-16.53 58.48-15.09L58.48-15.09L58.48-15.09Q58.22-13.66 57.72-12.16L57.72-12.16L57.72-12.16Q58.34-11.44 59.02-10.73L59.02-10.73L59.02-10.73Q59.69-10.03 60.23-9.28L60.23-9.28L60.23-9.28Q60.78-8.53 61.14-7.67L61.14-7.67L61.14-7.67Q61.50-6.81 61.50-5.81L61.50-5.81L61.50-5.81Q61.50-4.44 60.98-3.28L60.98-3.28L60.98-3.28Q60.47-2.13 59.75-1.28L59.75-1.28L59.75-1.28Q59.03-0.44 58.25 0.03L58.25 0.03L58.25 0.03Q57.47 0.50 56.91 0.50L56.91 0.50L56.91 0.50Q55.94 0.50 55.42 0L55.42 0L55.42 0Q54.91-0.50 54.91-1.09L54.91-1.09L54.91-1.09Q54.91-1.56 55.06-2.03L55.06-2.03L55.06-2.03Q55.22-2.50 55.42-2.89L55.42-2.89L55.42-2.89Q55.63-3.28 55.83-3.53L55.83-3.53L55.83-3.53Q56.03-3.78 56.13-3.78L56.13-3.78L56.13-3.78Q56.28-3.78 56.33-3.67L56.33-3.67L56.33-3.67Q56.38-3.56 56.38-3.47L56.38-3.47L56.38-3.47Q56.38-3.31 56.34-3.03L56.34-3.03L56.34-3.03Q56.31-2.75 56.31-2.56L56.31-2.56L56.31-2.56Q56.31-2.03 56.67-1.69L56.67-1.69L56.67-1.69Q57.03-1.34 57.84-1.34L57.84-1.34L57.84-1.34Q58.19-1.34 58.63-1.50L58.63-1.50L58.63-1.50Q59.06-1.66 59.47-2L59.47-2L59.47-2Q59.88-2.34 60.14-2.86L60.14-2.86L60.14-2.86Q60.41-3.38 60.41-4.09L60.41-4.09L60.41-4.09Q60.41-4.75 60.09-5.47L60.09-5.47L60.09-5.47Q59.78-6.19 59.28-6.94L59.28-6.94L59.28-6.94Q58.78-7.69 58.17-8.47L58.17-8.47L58.17-8.47Q57.56-9.25 56.97-10.06L56.97-10.06L56.97-10.06Q56.25-8.28 55.39-6.61L55.39-6.61L55.39-6.61Q54.53-4.94 53.56-3.53L53.56-3.53ZM55.56-16.78L55.56-16.78L55.56-16.78Q55.56-15.59 56-14.67L56-14.67L56-14.67Q56.44-13.75 57.16-12.88L57.16-12.88L57.16-12.88Q57.41-13.84 57.50-14.73L57.50-14.73L57.50-14.73Q57.59-15.63 57.59-16.44L57.59-16.44L57.59-16.44Q57.59-18.63 56.63-18.63L56.63-18.63L56.63-18.63Q56.34-18.63 55.95-18.20L55.95-18.20L55.95-18.20Q55.56-17.78 55.56-16.78ZM66-13L66-13L66-13Q66.25-13 66.48-12.86L66.48-12.86L66.48-12.86Q66.72-12.72 66.89-12.56L66.89-12.56L66.89-12.56Q67.06-12.41 67.17-12.23L67.17-12.23L67.17-12.23Q67.28-12.06 67.28-12.03L67.28-12.03L67.28-12.03Q67.28-12 67.20-11.70L67.20-11.70L67.20-11.70Q67.13-11.41 67.02-10.72L67.02-10.72L67.02-10.72Q66.91-10.03 66.83-8.92L66.83-8.92L66.83-8.92Q66.75-7.81 66.75-6.16L66.75-6.16L66.75-6.16Q66.75-3.94 67.30-3.06L67.30-3.06L67.30-3.06Q67.84-2.19 68.63-2.19L68.63-2.19L68.63-2.19Q69.41-2.19 70.17-2.66L70.17-2.66L70.17-2.66Q70.94-3.13 71.63-3.88L71.63-3.88L71.63-3.88Q72.31-4.63 72.92-5.58L72.92-5.58L72.92-5.58Q73.53-6.53 74-7.50L74-7.50L74.19-7.38L74.19-7.38Q74.06-7.06 73.81-6.42L73.81-6.42L73.81-6.42Q73.56-5.78 73.19-5.03L73.19-5.03L73.19-5.03Q72.81-4.28 72.30-3.48L72.30-3.48L72.30-3.48Q71.78-2.69 71.11-2.05L71.11-2.05L71.11-2.05Q70.44-1.41 69.64-0.98L69.64-0.98L69.64-0.98Q68.84-0.56 67.91-0.56L67.91-0.56L67.91-0.56Q67.25-0.56 66.70-0.81L66.70-0.81L66.70-0.81Q66.16-1.06 65.73-1.73L65.73-1.73L65.73-1.73Q65.31-2.41 65.08-3.59L65.08-3.59L65.08-3.59Q64.84-4.78 64.84-6.66L64.84-6.66L64.84-6.66Q64.84-7.63 64.92-8.73L64.92-8.73L64.92-8.73Q65-9.84 65.14-10.80L65.14-10.80L65.14-10.80Q65.28-11.75 65.50-12.38L65.50-12.38L65.50-12.38Q65.72-13 66-13ZM66.75-20.75L66.75-20.75L66.75-20.75Q67.53-20.75 67.88-20.20L67.88-20.20L67.88-20.20Q68.22-19.66 68.22-18.88L68.22-18.88L68.22-18.88Q68.22-17.97 67.72-17.47L67.72-17.47L67.72-17.47Q67.22-16.97 66.50-16.97L66.50-16.97L66.50-16.97Q65.97-16.97 65.47-17.38L65.47-17.38L65.47-17.38Q64.97-17.78 64.97-18.69L64.97-18.69L64.97-18.69Q64.97-19.69 65.47-20.22L65.47-20.22L65.47-20.22Q65.97-20.75 66.75-20.75ZM74.69-13.94L74.69-13.94L74.69-13.94Q74.84-13.94 74.94-13.69L74.94-13.69L74.94-13.69Q75.03-13.44 75.08-13.09L75.08-13.09L75.08-13.09Q75.13-12.75 75.13-12.36L75.13-12.36L75.13-12.36Q75.13-11.97 75.13-11.66L75.13-11.66L75.13-11.66Q75.13-10.84 75.08-9.98L75.08-9.98L75.08-9.98Q75.03-9.13 74.98-8.33L74.98-8.33L74.98-8.33Q74.94-7.53 74.91-6.86L74.91-6.86L74.91-6.86Q74.88-6.19 74.88-5.75L74.88-5.75L74.88-5.75Q74.88-4.94 74.94-4.45L74.94-4.45L74.94-4.45Q75-3.97 75.25-3.97L75.25-3.97L75.25-3.97Q75.41-3.97 75.66-4.38L75.66-4.38L75.66-4.38Q75.91-4.78 76.20-5.36L76.20-5.36L76.20-5.36Q76.50-5.94 76.78-6.59L76.78-6.59L76.78-6.59Q77.06-7.25 77.31-7.75L77.31-7.75L77.31-7.75Q77.63-8.41 78.02-9.20L78.02-9.20L78.02-9.20Q78.41-10 78.84-10.70L78.84-10.70L78.84-10.70Q79.28-11.41 79.77-11.88L79.77-11.88L79.77-11.88Q80.25-12.34 80.78-12.34L80.78-12.34L80.78-12.34Q81.13-12.34 81.39-12.16L81.39-12.16L81.39-12.16Q81.66-11.97 81.84-11.67L81.84-11.67L81.84-11.67Q82.03-11.38 82.14-11.05L82.14-11.05L82.14-11.05Q82.25-10.72 82.31-10.44L82.31-10.44L82.31-10.44Q82.41-9.72 82.52-8.17L82.52-8.17L82.52-8.17Q82.63-6.63 82.81-4.88L82.81-4.88L82.81-4.88Q82.97-3.13 83.66-2.33L83.66-2.33L83.66-2.33Q84.34-1.53 85.44-1.53L85.44-1.53L85.44-1.53Q85.88-1.53 86.14-1.59L86.14-1.59L86.14-1.59Q86.41-1.66 86.59-1.66L86.59-1.66L86.59-1.66Q86.75-1.66 86.66-1.34L86.66-1.34L86.66-1.34Q86.63-1.28 86.52-1.17L86.52-1.17L86.52-1.17Q86.41-1.06 86.16-0.94L86.16-0.94L86.16-0.94Q85.91-0.81 85.48-0.72L85.48-0.72L85.48-0.72Q85.06-0.63 84.47-0.63L84.47-0.63L84.47-0.63Q83.47-0.63 82.81-0.95L82.81-0.95L82.81-0.95Q82.16-1.28 81.75-2L81.75-2L81.75-2Q81.34-2.72 81.16-3.86L81.16-3.86L81.16-3.86Q80.97-5 80.91-6.59L80.91-6.59L80.91-6.59Q80.84-7.34 80.80-8.05L80.80-8.05L80.80-8.05Q80.75-8.75 80.64-9.30L80.64-9.30L80.64-9.30Q80.53-9.84 80.34-10.17L80.34-10.17L80.34-10.17Q80.16-10.50 79.81-10.50L79.81-10.50L79.81-10.50Q79.53-10.50 79.14-9.94L79.14-9.94L79.14-9.94Q78.75-9.38 78.38-8.61L78.38-8.61L78.38-8.61Q78-7.84 77.67-7.03L77.67-7.03L77.67-7.03Q77.34-6.22 77.13-5.75L77.13-5.75L77.13-5.75Q76.44-4.28 75.98-3.34L75.98-3.34L75.98-3.34Q75.53-2.41 75-1.53L75-1.53L75-1.53Q74.84-1.28 74.67-1.13L74.67-1.13L74.67-1.13Q74.50-0.97 74.25-0.97L74.25-0.97L74.25-0.97Q73.88-0.97 73.66-1.59L73.66-1.59L73.66-1.59Q73.44-2.22 73.33-3.03L73.33-3.03L73.33-3.03Q73.22-3.84 73.19-4.67L73.19-4.67L73.19-4.67Q73.16-5.50 73.16-5.94L73.16-5.94L73.16-5.94Q73.16-6.44 73.17-7.16L73.17-7.16L73.17-7.16Q73.19-7.88 73.22-8.56L73.22-8.56L73.22-8.56Q73.25-9.25 73.27-9.81L73.27-9.81L73.27-9.81Q73.28-10.38 73.28-10.56L73.28-10.56L73.28-10.56Q73.28-10.75 73.27-11.08L73.27-11.08L73.27-11.08Q73.25-11.41 73.25-11.73L73.25-11.73L73.25-11.73Q73.25-12.06 73.23-12.33L73.23-12.33L73.23-12.33Q73.22-12.59 73.22-12.69L73.22-12.69L73.22-12.69Q73.22-12.94 73.36-13.11L73.36-13.11L73.36-13.11Q73.50-13.28 73.66-13.38L73.66-13.38L73.66-13.38Q73.81-13.47 74.16-13.70L74.16-13.70L74.16-13.70Q74.50-13.94 74.69-13.94ZM86.22-9.09L86.59-9.16L86.59-9.16Q86.75-7.84 87.16-6.44L87.16-6.44L87.16-6.44Q87.56-5.03 88.36-3.89L88.36-3.89L88.36-3.89Q89.16-2.75 90.39-2.02L90.39-2.02L90.39-2.02Q91.63-1.28 93.44-1.28L93.44-1.28L93.44-1.28Q95.25-1.28 96.97-1.95L96.97-1.95L96.97-1.95Q98.69-2.63 100.33-3.84L100.33-3.84L100.33-3.84Q101.97-5.06 103.53-6.73L103.53-6.73L103.53-6.73Q105.09-8.41 106.56-10.44L106.56-10.44L106.56-10.44Q104.84-10.38 103.11-10.30L103.11-10.30L103.11-10.30Q101.38-10.22 99.59-10.13L99.59-10.13L99.59-10.13Q99.22-10.13 98.75-10.02L98.75-10.02L98.75-10.02Q98.28-9.91 98.19-9.91L98.19-9.91L98.19-9.91Q97.88-9.91 97.88-10.31L97.88-10.31L97.88-10.31Q97.88-10.50 97.98-10.75L97.98-10.75L97.98-10.75Q98.09-11 98.31-11.23L98.31-11.23L98.31-11.23Q98.53-11.47 98.86-11.63L98.86-11.63L98.86-11.63Q99.19-11.78 99.59-11.78L99.59-11.78L99.59-11.78Q100.47-11.78 102.61-11.86L102.61-11.86L102.61-11.86Q104.75-11.94 107.66-12.09L107.66-12.09L107.66-12.09Q109.88-15.34 111.88-19.09L111.88-19.09L111.88-19.09Q113.88-22.84 115.66-26.55L115.66-26.55L115.66-26.55Q117.44-30.25 119.03-33.67L119.03-33.67L119.03-33.67Q120.63-37.09 122-39.70L122-39.70L122-39.70Q123.38-42.31 124.53-43.88L124.53-43.88L124.53-43.88Q125.69-45.44 126.66-45.44L126.66-45.44L126.66-45.44Q127.25-45.44 127.61-45.05L127.61-45.05L127.61-45.05Q127.97-44.66 128.14-44.02L128.14-44.02L128.14-44.02Q128.31-43.38 128.36-42.55L128.36-42.55L128.36-42.55Q128.41-41.72 128.41-40.84L128.41-40.84L128.41-40.84Q128.41-37.16 128.11-33.64L128.11-33.64L128.11-33.64Q127.81-30.13 127.42-26.67L127.42-26.67L127.42-26.67Q127.03-23.22 126.64-19.77L126.64-19.77L126.64-19.77Q126.25-16.31 126.03-12.75L126.03-12.75L126.03-12.75Q126.91-12.81 127.72-12.81L127.72-12.81L127.72-12.81Q128.53-12.81 129.28-12.81L129.28-12.81L130.63-12.81L130.63-12.81Q131.34-12.81 131.89-12.77L131.89-12.77L131.89-12.77Q132.44-12.72 132.44-12.41L132.44-12.41L132.44-12.41Q132.44-12.03 132.08-11.61L132.08-11.61L132.08-11.61Q131.72-11.19 130.91-11.19L130.91-11.19L130.91-11.19Q129.59-11.13 128.38-11.13L128.38-11.13L128.38-11.13Q127.16-11.13 125.91-11.13L125.91-11.13L125.91-11.13Q125.84-9.94 125.84-8.77L125.84-8.77L125.84-8.77Q125.84-7.59 125.84-6.41L125.84-6.41L125.84-6.41Q125.84-5.41 125.97-4.41L125.97-4.41L125.97-4.41Q126.09-3.41 126.47-2.61L126.47-2.61L126.47-2.61Q126.84-1.81 127.52-1.30L127.52-1.30L127.52-1.30Q128.19-0.78 129.28-0.78L129.28-0.78L129.28-0.78Q130.06-0.78 130.83-1.17L130.83-1.17L130.83-1.17Q131.59-1.56 132.28-2.20L132.28-2.20L132.28-2.20Q132.97-2.84 133.53-3.63L133.53-3.63L133.53-3.63Q134.09-4.41 134.47-5.19L134.47-5.19L134.84-5L134.84-5Q134.47-4.19 133.92-3.06L133.92-3.06L133.92-3.06Q133.38-1.94 132.63-0.91L132.63-0.91L132.63-0.91Q131.88 0.13 130.86 0.86L130.86 0.86L130.86 0.86Q129.84 1.59 128.53 1.59L128.53 1.59L128.53 1.59Q126.19 1.59 125.17-0.23L125.17-0.23L125.17-0.23Q124.16-2.06 124.16-5.75L124.16-5.75L124.16-5.75Q124.16-7.06 124.17-8.39L124.17-8.39L124.17-8.39Q124.19-9.72 124.31-11.06L124.31-11.06L124.31-11.06Q120.09-10.97 116.08-10.83L116.08-10.83L116.08-10.83Q112.06-10.69 107.91-10.50L107.91-10.50L107.91-10.50Q106.22-8 104.42-5.86L104.42-5.86L104.42-5.86Q102.63-3.72 100.77-2.14L100.77-2.14L100.77-2.14Q98.91-0.56 96.98 0.33L96.98 0.33L96.98 0.33Q95.06 1.22 93.13 1.22L93.13 1.22L93.13 1.22Q91.69 1.22 90.66 0.70L90.66 0.70L90.66 0.70Q89.63 0.19 88.91-0.67L88.91-0.67L88.91-0.67Q88.19-1.53 87.70-2.63L87.70-2.63L87.70-2.63Q87.22-3.72 86.94-4.86L86.94-4.86L86.94-4.86Q86.66-6 86.50-7.11L86.50-7.11L86.50-7.11Q86.34-8.22 86.22-9.09L86.22-9.09ZM109.06-12.16L109.06-12.16L109.06-12.16Q110.88-12.22 112.81-12.30L112.81-12.30L112.81-12.30Q114.75-12.38 116.72-12.45L116.72-12.45L116.72-12.45Q118.69-12.53 120.63-12.61L120.63-12.61L120.63-12.61Q122.56-12.69 124.38-12.75L124.38-12.75L124.38-12.75Q124.56-16.19 124.86-19.80L124.86-19.80L124.86-19.80Q125.16-23.41 125.42-27L125.42-27L125.42-27Q125.69-30.59 125.89-34.09L125.89-34.09L125.89-34.09Q126.09-37.59 126.09-40.84L126.09-40.84L126.09-40.84Q126.09-41.06 126.08-41.47L126.08-41.47L126.08-41.47Q126.06-41.88 126.03-42.25L126.03-42.25L126.03-42.25Q126-42.63 125.94-42.91L125.94-42.91L125.94-42.91Q125.88-43.19 125.78-43.19L125.78-43.19L125.78-43.19Q125.34-43.19 124.52-41.80L124.52-41.80L124.52-41.80Q123.69-40.41 122.53-38.05L122.53-38.05L122.53-38.05Q121.38-35.69 119.92-32.58L119.92-32.58L119.92-32.58Q118.47-29.47 116.75-26.02L116.75-26.02L116.75-26.02Q115.03-22.56 113.09-18.98L113.09-18.98L113.09-18.98Q111.16-15.41 109.06-12.16ZM141.53-13.19L141.53-13.19L141.53-13.19Q142.31-13.19 142.78-12.86L142.78-12.86L142.78-12.86Q143.25-12.53 143.48-12.08L143.48-12.08L143.48-12.08Q143.72-11.63 143.78-11.16L143.78-11.16L143.78-11.16Q143.84-10.69 143.84-10.38L143.84-10.38L143.84-10.38Q143.84-10 143.75-9.19L143.75-9.19L143.75-9.19Q143.66-8.38 143.56-7.50L143.56-7.50L143.56-7.50Q143.47-6.63 143.38-5.88L143.38-5.88L143.38-5.88Q143.28-5.13 143.28-4.88L143.28-4.88L143.28-4.88Q143.28-4.25 143.38-3.73L143.38-3.73L143.38-3.73Q143.47-3.22 143.72-2.81L143.72-2.81L143.72-2.81Q143.97-2.41 144.41-2.19L144.41-2.19L144.41-2.19Q144.84-1.97 145.56-1.97L145.56-1.97L145.56-1.97Q146.88-1.97 148.31-3.28L148.31-3.28L148.31-3.28Q149.75-4.59 151-6.91L151-6.91L151.19-6.78L151.19-6.78Q150.84-5.63 150.13-4.42L150.13-4.42L150.13-4.42Q149.41-3.22 148.47-2.22L148.47-2.22L148.47-2.22Q147.53-1.22 146.47-0.58L146.47-0.58L146.47-0.58Q145.41 0.06 144.41 0.06L144.41 0.06L144.41 0.06Q143.56 0.06 143.05-0.30L143.05-0.30L143.05-0.30Q142.53-0.66 142.25-1.20L142.25-1.20L142.25-1.20Q141.97-1.75 141.88-2.39L141.88-2.39L141.88-2.39Q141.78-3.03 141.78-3.59L141.78-3.59L141.78-3.59Q141.78-4.28 141.91-5.20L141.91-5.20L141.91-5.20Q142.03-6.13 142.17-7.05L142.17-7.05L142.17-7.05Q142.31-7.97 142.44-8.78L142.44-8.78L142.44-8.78Q142.56-9.59 142.56-10.06L142.56-10.06L142.56-10.06Q142.56-10.47 142.42-10.72L142.42-10.72L142.42-10.72Q142.28-10.97 142.06-11.11L142.06-11.11L142.06-11.11Q141.84-11.25 141.63-11.28L141.63-11.28L141.63-11.28Q141.41-11.31 141.28-11.31L141.28-11.31L141.28-11.31Q140.94-11.31 140.39-11.22L140.39-11.22L140.39-11.22Q139.84-11.13 138.84-11.13L138.84-11.13L138.84-11.13Q138.56-11.13 138.28-11.16L138.28-11.16L138.28-11.16Q138-11.19 137.69-11.25L137.69-11.25L137.69-11.25Q137.59-10.03 137.30-8.88L137.30-8.88L137.30-8.88Q137-7.72 136.64-6.75L136.64-6.75L136.64-6.75Q136.28-5.78 135.91-5.08L135.91-5.08L135.91-5.08Q135.53-4.38 135.28-4.09L135.28-4.09L135.28-4.09Q134.88-4.09 134.88-4.47L134.88-4.47L134.88-4.47Q134.91-4.66 135.20-5.23L135.20-5.23L135.20-5.23Q135.50-5.81 135.86-6.72L135.86-6.72L135.86-6.72Q136.22-7.63 136.55-8.88L136.55-8.88L136.55-8.88Q136.88-10.13 136.94-11.66L136.94-11.66L136.94-11.66Q135.47-12.50 135.47-14.66L135.47-14.66L135.47-14.66Q135.47-15.25 135.70-15.66L135.70-15.66L135.70-15.66Q135.94-16.06 136.41-16.06L136.41-16.06L136.41-16.06Q137.09-16.06 137.39-15.27L137.39-15.27L137.39-15.27Q137.69-14.47 137.75-13.13L137.75-13.13L137.75-13.13Q137.97-13.06 138.17-13.03L138.17-13.03L138.17-13.03Q138.38-13 138.66-13L138.66-13L138.66-13Q139.47-13 140.17-13.09L140.17-13.09L140.17-13.09Q140.88-13.19 141.53-13.19ZM136.75-13.94L136.75-13.94L136.75-13.94Q136.75-13.81 136.88-13.69L136.88-13.69L136.88-13.69Q136.84-13.84 136.83-14L136.83-14L136.83-14Q136.81-14.16 136.78-14.25L136.78-14.25L136.78-14.25Q136.75-14.38 136.75-14.47L136.75-14.47L136.75-14.47Q136.66-14.47 136.59-14.38L136.59-14.38L136.59-14.38Q136.53-14.28 136.75-13.94ZM161.25-6.91L161.44-6.78L161.44-6.78Q161.22-6.16 160.75-5.09L160.75-5.09L160.75-5.09Q160.28-4.03 159.48-3.02L159.48-3.02L159.48-3.02Q158.69-2 157.55-1.28L157.55-1.28L157.55-1.28Q156.41-0.56 154.91-0.63L154.91-0.63L154.91-0.63Q153.56-0.72 152.66-1.41L152.66-1.41L152.66-1.41Q151.75-2.09 151.19-3.52L151.19-3.52L151.19-3.52Q150.63-4.94 150.38-7.11L150.38-7.11L150.38-7.11Q150.13-9.28 150.13-12.34L150.13-12.34L150.13-12.34Q150.13-15.28 150.28-17.64L150.28-17.64L150.28-17.64Q150.44-20 150.69-21.81L150.69-21.81L150.69-21.81Q149.25-21.75 148.17-21.75L148.17-21.75L148.17-21.75Q147.09-21.75 146.66-21.75L146.66-21.75L146.66-21.75Q145.75-21.75 144.86-21.88L144.86-21.88L144.86-21.88Q143.97-22 143.19-22.31L143.19-22.31L143.19-22.31Q142.41-22.63 141.75-23.14L141.75-23.14L141.75-23.14Q141.09-23.66 140.66-24.44L140.66-24.44L140.78-24.72L140.78-24.72Q140.81-24.66 141.08-24.42L141.08-24.42L141.08-24.42Q141.34-24.19 142.03-23.94L142.03-23.94L142.03-23.94Q142.72-23.69 143.91-23.48L143.91-23.48L143.91-23.48Q145.09-23.28 146.97-23.28L146.97-23.28L150.88-23.28L150.88-23.28Q151.38-26.09 151.89-27.48L151.89-27.48L151.89-27.48Q152.41-28.88 152.59-29.25L152.59-29.25L152.59-29.25Q152.84-29.78 153.33-30.16L153.33-30.16L153.33-30.16Q153.81-30.53 154.16-30.53L154.16-30.53L154.16-30.53Q154.81-30.53 155.22-29.28L155.22-29.28L155.22-29.28Q155.63-28.03 155.63-25.41L155.63-25.41L155.63-25.41Q155.63-24.94 155.59-24.42L155.59-24.42L155.59-24.42Q155.56-23.91 155.56-23.38L155.56-23.38L155.56-23.38Q157.06-23.41 158.42-23.44L158.42-23.44L158.42-23.44Q159.78-23.47 160.86-23.50L160.86-23.50L160.86-23.50Q161.94-23.53 162.67-23.56L162.67-23.56L162.67-23.56Q163.41-23.59 163.63-23.63L163.63-23.63L163.63-23.63Q163.78-23.63 164.16-23.66L164.16-23.66L164.16-23.66Q164.53-23.69 164.66-23.69L164.66-23.69L164.66-23.69Q165.16-23.69 165.16-23.38L165.16-23.38L165.16-23.38Q165.16-22.94 164.89-22.58L164.89-22.58L164.89-22.58Q164.63-22.22 163.81-22.16L163.81-22.16L163.81-22.16Q163.66-22.13 162.89-22.11L162.89-22.11L162.89-22.11Q162.13-22.09 160.97-22.06L160.97-22.06L160.97-22.06Q159.81-22.03 158.38-21.98L158.38-21.98L158.38-21.98Q156.94-21.94 155.44-21.88L155.44-21.88L155.44-21.88Q155.13-19.22 154.31-16.08L154.31-16.08L154.31-16.08Q153.50-12.94 152.03-9.34L152.03-9.34L152.03-9.34Q152.16-7.28 152.39-5.91L152.39-5.91L152.39-5.91Q152.63-4.53 153.03-3.70L153.03-3.70L153.03-3.70Q153.44-2.88 154.05-2.53L154.05-2.53L154.05-2.53Q154.66-2.19 155.50-2.19L155.50-2.19L155.50-2.19Q156.41-2.19 157.19-2.53L157.19-2.53L157.19-2.53Q157.97-2.88 158.61-3.39L158.61-3.39L158.61-3.39Q159.25-3.91 159.73-4.52L159.73-4.52L159.73-4.52Q160.22-5.13 160.55-5.66L160.55-5.66L160.55-5.66Q160.88-6.19 161.05-6.53L161.05-6.53L161.05-6.53Q161.22-6.88 161.25-6.91L161.25-6.91ZM154.22-21.88L154.22-21.88L154.22-21.88Q153.69-21.88 153.19-21.84L153.19-21.84L153.19-21.84Q152.69-21.81 152.16-21.81L152.16-21.81L152.16-21.81Q152.06-20.03 152.02-18.16L152.02-18.16L152.02-18.16Q151.97-16.28 151.97-14.59L151.97-14.59L151.97-11.06L151.97-11.06Q152.88-13.91 153.45-16.59L153.45-16.59L153.45-16.59Q154.03-19.28 154.22-21.88ZM152.28-23.28L152.28-23.28L152.28-23.28Q152.78-23.28 153.30-23.33L153.30-23.33L153.30-23.33Q153.81-23.38 154.34-23.38L154.34-23.38L154.34-24.44L154.34-24.44Q154.34-26 154.25-26.94L154.25-26.94L154.25-26.94Q154.16-27.88 154.05-28.39L154.05-28.39L154.05-28.39Q153.94-28.91 153.80-29.08L153.80-29.08L153.80-29.08Q153.66-29.25 153.56-29.25L153.56-29.25L153.56-29.25Q153.31-29.25 153.13-28.78L153.13-28.78L153.13-28.78Q152.94-28.31 152.78-27.52L152.78-27.52L152.78-27.52Q152.63-26.72 152.50-25.63L152.50-25.63L152.50-25.63Q152.38-24.53 152.28-23.28Z" fill="url(#editing-shiny-gradient)"></path></g></g><g filter="url(#editing-shiny2)"><g transform="translate(170.26132202148438, 101.47000503540039)"><path d="M38.16-1.28L38.34-1.16L38.34-1.16Q38.16-0.78 37.50-0.02L37.50-0.02L37.50-0.02Q36.84 0.75 35.89 1.52L35.89 1.52L35.89 1.52Q34.94 2.28 33.70 2.84L33.70 2.84L33.70 2.84Q32.47 3.41 31.09 3.41L31.09 3.41L31.09 3.41Q29.34 3.41 27.77 2.41L27.77 2.41L27.77 2.41Q26.19 1.41 24.77-0.06L24.77-0.06L24.77-0.06Q23.34-1.53 22.08-3.22L22.08-3.22L22.08-3.22Q20.81-4.91 19.66-6.28L19.66-6.28L19.66-6.28Q19.16-6.19 18.66-6.17L18.66-6.17L18.66-6.17Q18.16-6.16 17.66-6.16L17.66-6.16L17.66-6.16Q16.75-6.16 16-6.27L16-6.27L16-6.27Q15.25-6.38 14.72-6.66L14.72-6.66L14.72-6.66Q14.56-4.88 14.42-3.09L14.42-3.09L14.42-3.09Q14.28-1.31 14.09 0.50L14.09 0.50L14.09 0.50Q14.09 0.94 13.73 1.14L13.73 1.14L13.73 1.14Q13.38 1.34 12.94 1.34L12.94 1.34L12.94 1.34Q12.59 1.34 12.31 1.22L12.31 1.22L12.31 1.22Q12.03 1.09 12.03 0.91L12.03 0.91L12.03 0.91Q12.03 0.69 12.34 0.44L12.34 0.44L12.34 0.44Q13.03-10.19 13.42-20.91L13.42-20.91L13.42-20.91Q13.81-31.63 14.16-42.63L14.16-42.63L14.16-42.63Q11.38-41.72 8.89-40.36L8.89-40.36L8.89-40.36Q6.41-39 4.55-37.23L4.55-37.23L4.55-37.23Q2.69-35.47 1.59-33.38L1.59-33.38L1.59-33.38Q0.50-31.28 0.50-28.94L0.50-28.94L0.50-28.94Q0.50-28.16 0.67-27.50L0.67-27.50L0.67-27.50Q0.84-26.84 1.09-26.33L1.09-26.33L1.09-26.33Q1.34-25.81 1.61-25.45L1.61-25.45L1.61-25.45Q1.88-25.09 2.06-24.91L2.06-24.91L1.66-24.63L1.66-24.63Q1.50-24.81 1.22-25.20L1.22-25.20L1.22-25.20Q0.94-25.59 0.67-26.19L0.67-26.19L0.67-26.19Q0.41-26.78 0.20-27.56L0.20-27.56L0.20-27.56Q0-28.34 0-29.31L0-29.31L0-29.31Q0-32.06 1.17-34.45L1.17-34.45L1.17-34.45Q2.34-36.84 4.31-38.78L4.31-38.78L4.31-38.78Q6.28-40.72 8.86-42.20L8.86-42.20L8.86-42.20Q11.44-43.69 14.22-44.69L14.22-44.69L14.22-44.69Q14.28-45.75 14.31-46.81L14.31-46.81L14.31-46.81Q14.34-47.88 14.41-48.97L14.41-48.97L14.41-48.97Q14.41-49.25 14.81-49.39L14.81-49.39L14.81-49.39Q15.22-49.53 15.63-49.53L15.63-49.53L15.63-49.53Q15.97-49.53 16.23-49.44L16.23-49.44L16.23-49.44Q16.50-49.34 16.50-49.16L16.50-49.16L16.50-49.16Q16.50-49.03 16.38-48.91L16.38-48.91L16.38-48.91Q16.31-48 16.28-47.09L16.28-47.09L16.28-47.09Q16.25-46.19 16.19-45.31L16.19-45.31L16.19-45.31Q20.19-46.41 23.75-46.41L23.75-46.41L23.75-46.41Q26.97-46.41 29.86-45.53L29.86-45.53L29.86-45.53Q32.75-44.66 34.94-42.80L34.94-42.80L34.94-42.80Q37.13-40.94 38.41-38.05L38.41-38.05L38.41-38.05Q39.69-35.16 39.69-31.09L39.69-31.09L39.69-31.09Q39.69-28.63 39.03-26.02L39.03-26.02L39.03-26.02Q38.38-23.41 37.19-20.91L37.19-20.91L37.19-20.91Q36-18.41 34.34-16.09L34.34-16.09L34.34-16.09Q32.69-13.78 30.66-11.89L30.66-11.89L30.66-11.89Q28.63-10 26.31-8.61L26.31-8.61L26.31-8.61Q24-7.22 21.50-6.59L21.50-6.59L21.50-6.59Q22.72-5.38 23.89-3.95L23.89-3.95L23.89-3.95Q25.06-2.53 26.31-1.33L26.31-1.33L26.31-1.33Q27.56-0.13 28.98 0.67L28.98 0.67L28.98 0.67Q30.41 1.47 32.13 1.47L32.13 1.47L32.13 1.47Q33.06 1.47 34.02 1.22L34.02 1.22L34.02 1.22Q34.97 0.97 35.78 0.58L35.78 0.58L35.78 0.58Q36.59 0.19 37.23-0.31L37.23-0.31L37.23-0.31Q37.88-0.81 38.16-1.28L38.16-1.28ZM16.13-43.13L16.13-43.13L16.13-43.13Q15.84-34.81 15.67-26.50L15.67-26.50L15.67-26.50Q15.50-18.19 14.91-9.53L14.91-9.53L14.91-9.53Q15.06-9.59 15.25-9.63L15.25-9.63L15.25-9.63Q15.44-9.66 15.69-9.66L15.69-9.66L15.69-9.66Q17.13-9.66 18.34-9.05L18.34-9.05L18.34-9.05Q19.56-8.44 20.69-7.44L20.69-7.44L20.69-7.44Q23.16-7.91 25.36-9.03L25.36-9.03L25.36-9.03Q27.56-10.16 29.44-11.80L29.44-11.80L29.44-11.80Q31.31-13.44 32.81-15.47L32.81-15.47L32.81-15.47Q34.31-17.50 35.38-19.78L35.38-19.78L35.38-19.78Q36.44-22.06 37-24.48L37-24.48L37-24.48Q37.56-26.91 37.56-29.31L37.56-29.31L37.56-29.31Q37.56-32.47 36.78-35.17L36.78-35.17L36.78-35.17Q36-37.88 34.28-39.84L34.28-39.84L34.28-39.84Q32.56-41.81 29.81-42.92L29.81-42.92L29.81-42.92Q27.06-44.03 23.09-44.03L23.09-44.03L23.09-44.03Q19.66-44.03 16.13-43.13ZM17.66-7.16L17.66-7.16L17.66-7.16Q17.97-7.16 18.25-7.16L18.25-7.16L18.25-7.16Q18.53-7.16 18.81-7.22L18.81-7.22L18.81-7.22Q18.09-7.94 17.44-8.42L17.44-8.42L17.44-8.42Q16.78-8.91 16.19-8.91L16.19-8.91L16.19-8.91Q15.63-8.91 15.30-8.69L15.30-8.69L15.30-8.69Q14.97-8.47 14.97-8.13L14.97-8.13L14.97-8.13Q14.97-7.69 15.77-7.42L15.77-7.42L15.77-7.42Q16.56-7.16 17.66-7.16ZM49.28-15.44L49.28-15.44L49.28-15.44Q49.69-15.34 49.69-14.91L49.69-14.91L49.69-14.91Q49.69-14.78 49.61-14.58L49.61-14.58L49.61-14.58Q49.53-14.38 49.42-14.17L49.42-14.17L49.42-14.17Q49.31-13.97 49.19-13.83L49.19-13.83L49.19-13.83Q49.06-13.69 48.97-13.69L48.97-13.69L48.97-13.69Q48.81-13.69 48.59-13.80L48.59-13.80L48.59-13.80Q48.38-13.91 47.97-14.05L47.97-14.05L47.97-14.05Q47.56-14.19 46.91-14.30L46.91-14.30L46.91-14.30Q46.25-14.41 45.19-14.41L45.19-14.41L45.19-14.41Q43.69-14.41 42.69-13.84L42.69-13.84L42.69-13.84Q41.69-13.28 41.69-12.28L41.69-12.28L41.69-12.28Q41.69-11.56 42.30-11.08L42.30-11.08L42.30-11.08Q42.91-10.59 43.73-10.31L43.73-10.31L43.73-10.31Q44.56-10.03 45.42-9.91L45.42-9.91L45.42-9.91Q46.28-9.78 46.75-9.78L46.75-9.78L46.75-9.78Q47.09-9.78 47.20-9.67L47.20-9.67L47.20-9.67Q47.31-9.56 47.31-9.47L47.31-9.47L47.31-9.47Q47.31-9.22 47.11-9.17L47.11-9.17L47.11-9.17Q46.91-9.13 46.59-9.03L46.59-9.03L46.59-9.03Q45.78-8.75 44.94-8.33L44.94-8.33L44.94-8.33Q44.09-7.91 43.39-7.33L43.39-7.33L43.39-7.33Q42.69-6.75 42.25-6.03L42.25-6.03L42.25-6.03Q41.81-5.31 41.81-4.47L41.81-4.47L41.81-4.47Q41.81-3.06 42.95-2.14L42.95-2.14L42.95-2.14Q44.09-1.22 46.16-1.22L46.16-1.22L46.16-1.22Q48.50-1.22 50.06-1.92L50.06-1.92L50.06-1.92Q51.63-2.63 52.64-3.56L52.64-3.56L52.64-3.56Q53.66-4.50 54.22-5.45L54.22-5.45L54.22-5.45Q54.78-6.41 55.06-6.91L55.06-6.91L55.25-6.78L55.25-6.78Q54.72-5.25 53.89-3.94L53.89-3.94L53.89-3.94Q53.06-2.63 51.89-1.67L51.89-1.67L51.89-1.67Q50.72-0.72 49.16-0.17L49.16-0.17L49.16-0.17Q47.59 0.38 45.59 0.38L45.59 0.38L45.59 0.38Q44.38 0.38 43.34 0.08L43.34 0.08L43.34 0.08Q42.31-0.22 41.56-0.75L41.56-0.75L41.56-0.75Q40.81-1.28 40.41-2.06L40.41-2.06L40.41-2.06Q40-2.84 40-3.84L40-3.84L40-3.84Q40-5 40.53-5.84L40.53-5.84L40.53-5.84Q41.06-6.69 41.75-7.23L41.75-7.23L41.75-7.23Q42.44-7.78 43.11-8.08L43.11-8.08L43.11-8.08Q43.78-8.38 44.06-8.50L44.06-8.50L44.06-8.50Q43.09-8.66 42.34-9.03L42.34-9.03L42.34-9.03Q41.72-9.38 41.19-9.98L41.19-9.98L41.19-9.98Q40.66-10.59 40.66-11.66L40.66-11.66L40.66-11.66Q40.66-12.63 41.13-13.42L41.13-13.42L41.13-13.42Q41.59-14.22 42.39-14.75L42.39-14.75L42.39-14.75Q43.19-15.28 44.23-15.58L44.23-15.58L44.23-15.58Q45.28-15.88 46.47-15.88L46.47-15.88L46.47-15.88Q47.16-15.88 47.86-15.78L47.86-15.78L47.86-15.78Q48.56-15.69 49.28-15.44ZM53.56-3.53L53.19-3.78L53.19-3.78Q54.25-5.47 55.09-7.23L55.09-7.23L55.09-7.23Q55.94-9 56.50-10.69L56.50-10.69L56.50-10.69Q55.75-11.75 55.23-12.86L55.23-12.86L55.23-12.86Q54.72-13.97 54.72-15.16L54.72-15.16L54.72-15.16Q54.72-16.31 54.94-17.25L54.94-17.25L54.94-17.25Q55.16-18.19 55.53-18.84L55.53-18.84L55.53-18.84Q55.91-19.50 56.38-19.86L56.38-19.86L56.38-19.86Q56.84-20.22 57.34-20.22L57.34-20.22L57.34-20.22Q58.03-20.22 58.45-19.53L58.45-19.53L58.45-19.53Q58.88-18.84 58.81-17.78L58.81-17.78L58.81-17.78Q58.75-16.53 58.48-15.09L58.48-15.09L58.48-15.09Q58.22-13.66 57.72-12.16L57.72-12.16L57.72-12.16Q58.34-11.44 59.02-10.73L59.02-10.73L59.02-10.73Q59.69-10.03 60.23-9.28L60.23-9.28L60.23-9.28Q60.78-8.53 61.14-7.67L61.14-7.67L61.14-7.67Q61.50-6.81 61.50-5.81L61.50-5.81L61.50-5.81Q61.50-4.44 60.98-3.28L60.98-3.28L60.98-3.28Q60.47-2.13 59.75-1.28L59.75-1.28L59.75-1.28Q59.03-0.44 58.25 0.03L58.25 0.03L58.25 0.03Q57.47 0.50 56.91 0.50L56.91 0.50L56.91 0.50Q55.94 0.50 55.42 0L55.42 0L55.42 0Q54.91-0.50 54.91-1.09L54.91-1.09L54.91-1.09Q54.91-1.56 55.06-2.03L55.06-2.03L55.06-2.03Q55.22-2.50 55.42-2.89L55.42-2.89L55.42-2.89Q55.63-3.28 55.83-3.53L55.83-3.53L55.83-3.53Q56.03-3.78 56.13-3.78L56.13-3.78L56.13-3.78Q56.28-3.78 56.33-3.67L56.33-3.67L56.33-3.67Q56.38-3.56 56.38-3.47L56.38-3.47L56.38-3.47Q56.38-3.31 56.34-3.03L56.34-3.03L56.34-3.03Q56.31-2.75 56.31-2.56L56.31-2.56L56.31-2.56Q56.31-2.03 56.67-1.69L56.67-1.69L56.67-1.69Q57.03-1.34 57.84-1.34L57.84-1.34L57.84-1.34Q58.19-1.34 58.63-1.50L58.63-1.50L58.63-1.50Q59.06-1.66 59.47-2L59.47-2L59.47-2Q59.88-2.34 60.14-2.86L60.14-2.86L60.14-2.86Q60.41-3.38 60.41-4.09L60.41-4.09L60.41-4.09Q60.41-4.75 60.09-5.47L60.09-5.47L60.09-5.47Q59.78-6.19 59.28-6.94L59.28-6.94L59.28-6.94Q58.78-7.69 58.17-8.47L58.17-8.47L58.17-8.47Q57.56-9.25 56.97-10.06L56.97-10.06L56.97-10.06Q56.25-8.28 55.39-6.61L55.39-6.61L55.39-6.61Q54.53-4.94 53.56-3.53L53.56-3.53ZM55.56-16.78L55.56-16.78L55.56-16.78Q55.56-15.59 56-14.67L56-14.67L56-14.67Q56.44-13.75 57.16-12.88L57.16-12.88L57.16-12.88Q57.41-13.84 57.50-14.73L57.50-14.73L57.50-14.73Q57.59-15.63 57.59-16.44L57.59-16.44L57.59-16.44Q57.59-18.63 56.63-18.63L56.63-18.63L56.63-18.63Q56.34-18.63 55.95-18.20L55.95-18.20L55.95-18.20Q55.56-17.78 55.56-16.78ZM66-13L66-13L66-13Q66.25-13 66.48-12.86L66.48-12.86L66.48-12.86Q66.72-12.72 66.89-12.56L66.89-12.56L66.89-12.56Q67.06-12.41 67.17-12.23L67.17-12.23L67.17-12.23Q67.28-12.06 67.28-12.03L67.28-12.03L67.28-12.03Q67.28-12 67.20-11.70L67.20-11.70L67.20-11.70Q67.13-11.41 67.02-10.72L67.02-10.72L67.02-10.72Q66.91-10.03 66.83-8.92L66.83-8.92L66.83-8.92Q66.75-7.81 66.75-6.16L66.75-6.16L66.75-6.16Q66.75-3.94 67.30-3.06L67.30-3.06L67.30-3.06Q67.84-2.19 68.63-2.19L68.63-2.19L68.63-2.19Q69.41-2.19 70.17-2.66L70.17-2.66L70.17-2.66Q70.94-3.13 71.63-3.88L71.63-3.88L71.63-3.88Q72.31-4.63 72.92-5.58L72.92-5.58L72.92-5.58Q73.53-6.53 74-7.50L74-7.50L74.19-7.38L74.19-7.38Q74.06-7.06 73.81-6.42L73.81-6.42L73.81-6.42Q73.56-5.78 73.19-5.03L73.19-5.03L73.19-5.03Q72.81-4.28 72.30-3.48L72.30-3.48L72.30-3.48Q71.78-2.69 71.11-2.05L71.11-2.05L71.11-2.05Q70.44-1.41 69.64-0.98L69.64-0.98L69.64-0.98Q68.84-0.56 67.91-0.56L67.91-0.56L67.91-0.56Q67.25-0.56 66.70-0.81L66.70-0.81L66.70-0.81Q66.16-1.06 65.73-1.73L65.73-1.73L65.73-1.73Q65.31-2.41 65.08-3.59L65.08-3.59L65.08-3.59Q64.84-4.78 64.84-6.66L64.84-6.66L64.84-6.66Q64.84-7.63 64.92-8.73L64.92-8.73L64.92-8.73Q65-9.84 65.14-10.80L65.14-10.80L65.14-10.80Q65.28-11.75 65.50-12.38L65.50-12.38L65.50-12.38Q65.72-13 66-13ZM66.75-20.75L66.75-20.75L66.75-20.75Q67.53-20.75 67.88-20.20L67.88-20.20L67.88-20.20Q68.22-19.66 68.22-18.88L68.22-18.88L68.22-18.88Q68.22-17.97 67.72-17.47L67.72-17.47L67.72-17.47Q67.22-16.97 66.50-16.97L66.50-16.97L66.50-16.97Q65.97-16.97 65.47-17.38L65.47-17.38L65.47-17.38Q64.97-17.78 64.97-18.69L64.97-18.69L64.97-18.69Q64.97-19.69 65.47-20.22L65.47-20.22L65.47-20.22Q65.97-20.75 66.75-20.75ZM74.69-13.94L74.69-13.94L74.69-13.94Q74.84-13.94 74.94-13.69L74.94-13.69L74.94-13.69Q75.03-13.44 75.08-13.09L75.08-13.09L75.08-13.09Q75.13-12.75 75.13-12.36L75.13-12.36L75.13-12.36Q75.13-11.97 75.13-11.66L75.13-11.66L75.13-11.66Q75.13-10.84 75.08-9.98L75.08-9.98L75.08-9.98Q75.03-9.13 74.98-8.33L74.98-8.33L74.98-8.33Q74.94-7.53 74.91-6.86L74.91-6.86L74.91-6.86Q74.88-6.19 74.88-5.75L74.88-5.75L74.88-5.75Q74.88-4.94 74.94-4.45L74.94-4.45L74.94-4.45Q75-3.97 75.25-3.97L75.25-3.97L75.25-3.97Q75.41-3.97 75.66-4.38L75.66-4.38L75.66-4.38Q75.91-4.78 76.20-5.36L76.20-5.36L76.20-5.36Q76.50-5.94 76.78-6.59L76.78-6.59L76.78-6.59Q77.06-7.25 77.31-7.75L77.31-7.75L77.31-7.75Q77.63-8.41 78.02-9.20L78.02-9.20L78.02-9.20Q78.41-10 78.84-10.70L78.84-10.70L78.84-10.70Q79.28-11.41 79.77-11.88L79.77-11.88L79.77-11.88Q80.25-12.34 80.78-12.34L80.78-12.34L80.78-12.34Q81.13-12.34 81.39-12.16L81.39-12.16L81.39-12.16Q81.66-11.97 81.84-11.67L81.84-11.67L81.84-11.67Q82.03-11.38 82.14-11.05L82.14-11.05L82.14-11.05Q82.25-10.72 82.31-10.44L82.31-10.44L82.31-10.44Q82.41-9.72 82.52-8.17L82.52-8.17L82.52-8.17Q82.63-6.63 82.81-4.88L82.81-4.88L82.81-4.88Q82.97-3.13 83.66-2.33L83.66-2.33L83.66-2.33Q84.34-1.53 85.44-1.53L85.44-1.53L85.44-1.53Q85.88-1.53 86.14-1.59L86.14-1.59L86.14-1.59Q86.41-1.66 86.59-1.66L86.59-1.66L86.59-1.66Q86.75-1.66 86.66-1.34L86.66-1.34L86.66-1.34Q86.63-1.28 86.52-1.17L86.52-1.17L86.52-1.17Q86.41-1.06 86.16-0.94L86.16-0.94L86.16-0.94Q85.91-0.81 85.48-0.72L85.48-0.72L85.48-0.72Q85.06-0.63 84.47-0.63L84.47-0.63L84.47-0.63Q83.47-0.63 82.81-0.95L82.81-0.95L82.81-0.95Q82.16-1.28 81.75-2L81.75-2L81.75-2Q81.34-2.72 81.16-3.86L81.16-3.86L81.16-3.86Q80.97-5 80.91-6.59L80.91-6.59L80.91-6.59Q80.84-7.34 80.80-8.05L80.80-8.05L80.80-8.05Q80.75-8.75 80.64-9.30L80.64-9.30L80.64-9.30Q80.53-9.84 80.34-10.17L80.34-10.17L80.34-10.17Q80.16-10.50 79.81-10.50L79.81-10.50L79.81-10.50Q79.53-10.50 79.14-9.94L79.14-9.94L79.14-9.94Q78.75-9.38 78.38-8.61L78.38-8.61L78.38-8.61Q78-7.84 77.67-7.03L77.67-7.03L77.67-7.03Q77.34-6.22 77.13-5.75L77.13-5.75L77.13-5.75Q76.44-4.28 75.98-3.34L75.98-3.34L75.98-3.34Q75.53-2.41 75-1.53L75-1.53L75-1.53Q74.84-1.28 74.67-1.13L74.67-1.13L74.67-1.13Q74.50-0.97 74.25-0.97L74.25-0.97L74.25-0.97Q73.88-0.97 73.66-1.59L73.66-1.59L73.66-1.59Q73.44-2.22 73.33-3.03L73.33-3.03L73.33-3.03Q73.22-3.84 73.19-4.67L73.19-4.67L73.19-4.67Q73.16-5.50 73.16-5.94L73.16-5.94L73.16-5.94Q73.16-6.44 73.17-7.16L73.17-7.16L73.17-7.16Q73.19-7.88 73.22-8.56L73.22-8.56L73.22-8.56Q73.25-9.25 73.27-9.81L73.27-9.81L73.27-9.81Q73.28-10.38 73.28-10.56L73.28-10.56L73.28-10.56Q73.28-10.75 73.27-11.08L73.27-11.08L73.27-11.08Q73.25-11.41 73.25-11.73L73.25-11.73L73.25-11.73Q73.25-12.06 73.23-12.33L73.23-12.33L73.23-12.33Q73.22-12.59 73.22-12.69L73.22-12.69L73.22-12.69Q73.22-12.94 73.36-13.11L73.36-13.11L73.36-13.11Q73.50-13.28 73.66-13.38L73.66-13.38L73.66-13.38Q73.81-13.47 74.16-13.70L74.16-13.70L74.16-13.70Q74.50-13.94 74.69-13.94ZM86.22-9.09L86.59-9.16L86.59-9.16Q86.75-7.84 87.16-6.44L87.16-6.44L87.16-6.44Q87.56-5.03 88.36-3.89L88.36-3.89L88.36-3.89Q89.16-2.75 90.39-2.02L90.39-2.02L90.39-2.02Q91.63-1.28 93.44-1.28L93.44-1.28L93.44-1.28Q95.25-1.28 96.97-1.95L96.97-1.95L96.97-1.95Q98.69-2.63 100.33-3.84L100.33-3.84L100.33-3.84Q101.97-5.06 103.53-6.73L103.53-6.73L103.53-6.73Q105.09-8.41 106.56-10.44L106.56-10.44L106.56-10.44Q104.84-10.38 103.11-10.30L103.11-10.30L103.11-10.30Q101.38-10.22 99.59-10.13L99.59-10.13L99.59-10.13Q99.22-10.13 98.75-10.02L98.75-10.02L98.75-10.02Q98.28-9.91 98.19-9.91L98.19-9.91L98.19-9.91Q97.88-9.91 97.88-10.31L97.88-10.31L97.88-10.31Q97.88-10.50 97.98-10.75L97.98-10.75L97.98-10.75Q98.09-11 98.31-11.23L98.31-11.23L98.31-11.23Q98.53-11.47 98.86-11.63L98.86-11.63L98.86-11.63Q99.19-11.78 99.59-11.78L99.59-11.78L99.59-11.78Q100.47-11.78 102.61-11.86L102.61-11.86L102.61-11.86Q104.75-11.94 107.66-12.09L107.66-12.09L107.66-12.09Q109.88-15.34 111.88-19.09L111.88-19.09L111.88-19.09Q113.88-22.84 115.66-26.55L115.66-26.55L115.66-26.55Q117.44-30.25 119.03-33.67L119.03-33.67L119.03-33.67Q120.63-37.09 122-39.70L122-39.70L122-39.70Q123.38-42.31 124.53-43.88L124.53-43.88L124.53-43.88Q125.69-45.44 126.66-45.44L126.66-45.44L126.66-45.44Q127.25-45.44 127.61-45.05L127.61-45.05L127.61-45.05Q127.97-44.66 128.14-44.02L128.14-44.02L128.14-44.02Q128.31-43.38 128.36-42.55L128.36-42.55L128.36-42.55Q128.41-41.72 128.41-40.84L128.41-40.84L128.41-40.84Q128.41-37.16 128.11-33.64L128.11-33.64L128.11-33.64Q127.81-30.13 127.42-26.67L127.42-26.67L127.42-26.67Q127.03-23.22 126.64-19.77L126.64-19.77L126.64-19.77Q126.25-16.31 126.03-12.75L126.03-12.75L126.03-12.75Q126.91-12.81 127.72-12.81L127.72-12.81L127.72-12.81Q128.53-12.81 129.28-12.81L129.28-12.81L130.63-12.81L130.63-12.81Q131.34-12.81 131.89-12.77L131.89-12.77L131.89-12.77Q132.44-12.72 132.44-12.41L132.44-12.41L132.44-12.41Q132.44-12.03 132.08-11.61L132.08-11.61L132.08-11.61Q131.72-11.19 130.91-11.19L130.91-11.19L130.91-11.19Q129.59-11.13 128.38-11.13L128.38-11.13L128.38-11.13Q127.16-11.13 125.91-11.13L125.91-11.13L125.91-11.13Q125.84-9.94 125.84-8.77L125.84-8.77L125.84-8.77Q125.84-7.59 125.84-6.41L125.84-6.41L125.84-6.41Q125.84-5.41 125.97-4.41L125.97-4.41L125.97-4.41Q126.09-3.41 126.47-2.61L126.47-2.61L126.47-2.61Q126.84-1.81 127.52-1.30L127.52-1.30L127.52-1.30Q128.19-0.78 129.28-0.78L129.28-0.78L129.28-0.78Q130.06-0.78 130.83-1.17L130.83-1.17L130.83-1.17Q131.59-1.56 132.28-2.20L132.28-2.20L132.28-2.20Q132.97-2.84 133.53-3.63L133.53-3.63L133.53-3.63Q134.09-4.41 134.47-5.19L134.47-5.19L134.84-5L134.84-5Q134.47-4.19 133.92-3.06L133.92-3.06L133.92-3.06Q133.38-1.94 132.63-0.91L132.63-0.91L132.63-0.91Q131.88 0.13 130.86 0.86L130.86 0.86L130.86 0.86Q129.84 1.59 128.53 1.59L128.53 1.59L128.53 1.59Q126.19 1.59 125.17-0.23L125.17-0.23L125.17-0.23Q124.16-2.06 124.16-5.75L124.16-5.75L124.16-5.75Q124.16-7.06 124.17-8.39L124.17-8.39L124.17-8.39Q124.19-9.72 124.31-11.06L124.31-11.06L124.31-11.06Q120.09-10.97 116.08-10.83L116.08-10.83L116.08-10.83Q112.06-10.69 107.91-10.50L107.91-10.50L107.91-10.50Q106.22-8 104.42-5.86L104.42-5.86L104.42-5.86Q102.63-3.72 100.77-2.14L100.77-2.14L100.77-2.14Q98.91-0.56 96.98 0.33L96.98 0.33L96.98 0.33Q95.06 1.22 93.13 1.22L93.13 1.22L93.13 1.22Q91.69 1.22 90.66 0.70L90.66 0.70L90.66 0.70Q89.63 0.19 88.91-0.67L88.91-0.67L88.91-0.67Q88.19-1.53 87.70-2.63L87.70-2.63L87.70-2.63Q87.22-3.72 86.94-4.86L86.94-4.86L86.94-4.86Q86.66-6 86.50-7.11L86.50-7.11L86.50-7.11Q86.34-8.22 86.22-9.09L86.22-9.09ZM109.06-12.16L109.06-12.16L109.06-12.16Q110.88-12.22 112.81-12.30L112.81-12.30L112.81-12.30Q114.75-12.38 116.72-12.45L116.72-12.45L116.72-12.45Q118.69-12.53 120.63-12.61L120.63-12.61L120.63-12.61Q122.56-12.69 124.38-12.75L124.38-12.75L124.38-12.75Q124.56-16.19 124.86-19.80L124.86-19.80L124.86-19.80Q125.16-23.41 125.42-27L125.42-27L125.42-27Q125.69-30.59 125.89-34.09L125.89-34.09L125.89-34.09Q126.09-37.59 126.09-40.84L126.09-40.84L126.09-40.84Q126.09-41.06 126.08-41.47L126.08-41.47L126.08-41.47Q126.06-41.88 126.03-42.25L126.03-42.25L126.03-42.25Q126-42.63 125.94-42.91L125.94-42.91L125.94-42.91Q125.88-43.19 125.78-43.19L125.78-43.19L125.78-43.19Q125.34-43.19 124.52-41.80L124.52-41.80L124.52-41.80Q123.69-40.41 122.53-38.05L122.53-38.05L122.53-38.05Q121.38-35.69 119.92-32.58L119.92-32.58L119.92-32.58Q118.47-29.47 116.75-26.02L116.75-26.02L116.75-26.02Q115.03-22.56 113.09-18.98L113.09-18.98L113.09-18.98Q111.16-15.41 109.06-12.16ZM141.53-13.19L141.53-13.19L141.53-13.19Q142.31-13.19 142.78-12.86L142.78-12.86L142.78-12.86Q143.25-12.53 143.48-12.08L143.48-12.08L143.48-12.08Q143.72-11.63 143.78-11.16L143.78-11.16L143.78-11.16Q143.84-10.69 143.84-10.38L143.84-10.38L143.84-10.38Q143.84-10 143.75-9.19L143.75-9.19L143.75-9.19Q143.66-8.38 143.56-7.50L143.56-7.50L143.56-7.50Q143.47-6.63 143.38-5.88L143.38-5.88L143.38-5.88Q143.28-5.13 143.28-4.88L143.28-4.88L143.28-4.88Q143.28-4.25 143.38-3.73L143.38-3.73L143.38-3.73Q143.47-3.22 143.72-2.81L143.72-2.81L143.72-2.81Q143.97-2.41 144.41-2.19L144.41-2.19L144.41-2.19Q144.84-1.97 145.56-1.97L145.56-1.97L145.56-1.97Q146.88-1.97 148.31-3.28L148.31-3.28L148.31-3.28Q149.75-4.59 151-6.91L151-6.91L151.19-6.78L151.19-6.78Q150.84-5.63 150.13-4.42L150.13-4.42L150.13-4.42Q149.41-3.22 148.47-2.22L148.47-2.22L148.47-2.22Q147.53-1.22 146.47-0.58L146.47-0.58L146.47-0.58Q145.41 0.06 144.41 0.06L144.41 0.06L144.41 0.06Q143.56 0.06 143.05-0.30L143.05-0.30L143.05-0.30Q142.53-0.66 142.25-1.20L142.25-1.20L142.25-1.20Q141.97-1.75 141.88-2.39L141.88-2.39L141.88-2.39Q141.78-3.03 141.78-3.59L141.78-3.59L141.78-3.59Q141.78-4.28 141.91-5.20L141.91-5.20L141.91-5.20Q142.03-6.13 142.17-7.05L142.17-7.05L142.17-7.05Q142.31-7.97 142.44-8.78L142.44-8.78L142.44-8.78Q142.56-9.59 142.56-10.06L142.56-10.06L142.56-10.06Q142.56-10.47 142.42-10.72L142.42-10.72L142.42-10.72Q142.28-10.97 142.06-11.11L142.06-11.11L142.06-11.11Q141.84-11.25 141.63-11.28L141.63-11.28L141.63-11.28Q141.41-11.31 141.28-11.31L141.28-11.31L141.28-11.31Q140.94-11.31 140.39-11.22L140.39-11.22L140.39-11.22Q139.84-11.13 138.84-11.13L138.84-11.13L138.84-11.13Q138.56-11.13 138.28-11.16L138.28-11.16L138.28-11.16Q138-11.19 137.69-11.25L137.69-11.25L137.69-11.25Q137.59-10.03 137.30-8.88L137.30-8.88L137.30-8.88Q137-7.72 136.64-6.75L136.64-6.75L136.64-6.75Q136.28-5.78 135.91-5.08L135.91-5.08L135.91-5.08Q135.53-4.38 135.28-4.09L135.28-4.09L135.28-4.09Q134.88-4.09 134.88-4.47L134.88-4.47L134.88-4.47Q134.91-4.66 135.20-5.23L135.20-5.23L135.20-5.23Q135.50-5.81 135.86-6.72L135.86-6.72L135.86-6.72Q136.22-7.63 136.55-8.88L136.55-8.88L136.55-8.88Q136.88-10.13 136.94-11.66L136.94-11.66L136.94-11.66Q135.47-12.50 135.47-14.66L135.47-14.66L135.47-14.66Q135.47-15.25 135.70-15.66L135.70-15.66L135.70-15.66Q135.94-16.06 136.41-16.06L136.41-16.06L136.41-16.06Q137.09-16.06 137.39-15.27L137.39-15.27L137.39-15.27Q137.69-14.47 137.75-13.13L137.75-13.13L137.75-13.13Q137.97-13.06 138.17-13.03L138.17-13.03L138.17-13.03Q138.38-13 138.66-13L138.66-13L138.66-13Q139.47-13 140.17-13.09L140.17-13.09L140.17-13.09Q140.88-13.19 141.53-13.19ZM136.75-13.94L136.75-13.94L136.75-13.94Q136.75-13.81 136.88-13.69L136.88-13.69L136.88-13.69Q136.84-13.84 136.83-14L136.83-14L136.83-14Q136.81-14.16 136.78-14.25L136.78-14.25L136.78-14.25Q136.75-14.38 136.75-14.47L136.75-14.47L136.75-14.47Q136.66-14.47 136.59-14.38L136.59-14.38L136.59-14.38Q136.53-14.28 136.75-13.94ZM161.25-6.91L161.44-6.78L161.44-6.78Q161.22-6.16 160.75-5.09L160.75-5.09L160.75-5.09Q160.28-4.03 159.48-3.02L159.48-3.02L159.48-3.02Q158.69-2 157.55-1.28L157.55-1.28L157.55-1.28Q156.41-0.56 154.91-0.63L154.91-0.63L154.91-0.63Q153.56-0.72 152.66-1.41L152.66-1.41L152.66-1.41Q151.75-2.09 151.19-3.52L151.19-3.52L151.19-3.52Q150.63-4.94 150.38-7.11L150.38-7.11L150.38-7.11Q150.13-9.28 150.13-12.34L150.13-12.34L150.13-12.34Q150.13-15.28 150.28-17.64L150.28-17.64L150.28-17.64Q150.44-20 150.69-21.81L150.69-21.81L150.69-21.81Q149.25-21.75 148.17-21.75L148.17-21.75L148.17-21.75Q147.09-21.75 146.66-21.75L146.66-21.75L146.66-21.75Q145.75-21.75 144.86-21.88L144.86-21.88L144.86-21.88Q143.97-22 143.19-22.31L143.19-22.31L143.19-22.31Q142.41-22.63 141.75-23.14L141.75-23.14L141.75-23.14Q141.09-23.66 140.66-24.44L140.66-24.44L140.78-24.72L140.78-24.72Q140.81-24.66 141.08-24.42L141.08-24.42L141.08-24.42Q141.34-24.19 142.03-23.94L142.03-23.94L142.03-23.94Q142.72-23.69 143.91-23.48L143.91-23.48L143.91-23.48Q145.09-23.28 146.97-23.28L146.97-23.28L150.88-23.28L150.88-23.28Q151.38-26.09 151.89-27.48L151.89-27.48L151.89-27.48Q152.41-28.88 152.59-29.25L152.59-29.25L152.59-29.25Q152.84-29.78 153.33-30.16L153.33-30.16L153.33-30.16Q153.81-30.53 154.16-30.53L154.16-30.53L154.16-30.53Q154.81-30.53 155.22-29.28L155.22-29.28L155.22-29.28Q155.63-28.03 155.63-25.41L155.63-25.41L155.63-25.41Q155.63-24.94 155.59-24.42L155.59-24.42L155.59-24.42Q155.56-23.91 155.56-23.38L155.56-23.38L155.56-23.38Q157.06-23.41 158.42-23.44L158.42-23.44L158.42-23.44Q159.78-23.47 160.86-23.50L160.86-23.50L160.86-23.50Q161.94-23.53 162.67-23.56L162.67-23.56L162.67-23.56Q163.41-23.59 163.63-23.63L163.63-23.63L163.63-23.63Q163.78-23.63 164.16-23.66L164.16-23.66L164.16-23.66Q164.53-23.69 164.66-23.69L164.66-23.69L164.66-23.69Q165.16-23.69 165.16-23.38L165.16-23.38L165.16-23.38Q165.16-22.94 164.89-22.58L164.89-22.58L164.89-22.58Q164.63-22.22 163.81-22.16L163.81-22.16L163.81-22.16Q163.66-22.13 162.89-22.11L162.89-22.11L162.89-22.11Q162.13-22.09 160.97-22.06L160.97-22.06L160.97-22.06Q159.81-22.03 158.38-21.98L158.38-21.98L158.38-21.98Q156.94-21.94 155.44-21.88L155.44-21.88L155.44-21.88Q155.13-19.22 154.31-16.08L154.31-16.08L154.31-16.08Q153.50-12.94 152.03-9.34L152.03-9.34L152.03-9.34Q152.16-7.28 152.39-5.91L152.39-5.91L152.39-5.91Q152.63-4.53 153.03-3.70L153.03-3.70L153.03-3.70Q153.44-2.88 154.05-2.53L154.05-2.53L154.05-2.53Q154.66-2.19 155.50-2.19L155.50-2.19L155.50-2.19Q156.41-2.19 157.19-2.53L157.19-2.53L157.19-2.53Q157.97-2.88 158.61-3.39L158.61-3.39L158.61-3.39Q159.25-3.91 159.73-4.52L159.73-4.52L159.73-4.52Q160.22-5.13 160.55-5.66L160.55-5.66L160.55-5.66Q160.88-6.19 161.05-6.53L161.05-6.53L161.05-6.53Q161.22-6.88 161.25-6.91L161.25-6.91ZM154.22-21.88L154.22-21.88L154.22-21.88Q153.69-21.88 153.19-21.84L153.19-21.84L153.19-21.84Q152.69-21.81 152.16-21.81L152.16-21.81L152.16-21.81Q152.06-20.03 152.02-18.16L152.02-18.16L152.02-18.16Q151.97-16.28 151.97-14.59L151.97-14.59L151.97-11.06L151.97-11.06Q152.88-13.91 153.45-16.59L153.45-16.59L153.45-16.59Q154.03-19.28 154.22-21.88ZM152.28-23.28L152.28-23.28L152.28-23.28Q152.78-23.28 153.30-23.33L153.30-23.33L153.30-23.33Q153.81-23.38 154.34-23.38L154.34-23.38L154.34-24.44L154.34-24.44Q154.34-26 154.25-26.94L154.25-26.94L154.25-26.94Q154.16-27.88 154.05-28.39L154.05-28.39L154.05-28.39Q153.94-28.91 153.80-29.08L153.80-29.08L153.80-29.08Q153.66-29.25 153.56-29.25L153.56-29.25L153.56-29.25Q153.31-29.25 153.13-28.78L153.13-28.78L153.13-28.78Q152.94-28.31 152.78-27.52L152.78-27.52L152.78-27.52Q152.63-26.72 152.50-25.63L152.50-25.63L152.50-25.63Q152.38-24.53 152.28-23.28Z" fill="url(#editing-shiny-gradient2)"></path></g></g><style>text {
  font-size: 64px;
  font-family: Arial Black;
  dominant-baseline: central;
  text-anchor: middle;
}</style></svg>