<svg width="384.8443115234375px" height="122px" xmlns="http://www.w3.org/2000/svg" viewBox="57.577844238281244 14 384.8443115234375 122" style="background: rgba(0, 0, 0, 0);" preserveAspectRatio="xMidYMid"><defs><filter id="editing-extrude-glow"><feFlood flood-color="#333333" result="flood-1"></feFlood><feMorphology operator="erode" radius="1" in="SourceAlpha" result="erode"></feMorphology><feComposite operator="in" in="flood-1" in2="erode" result="comp1"></feComposite><feConvolveMatrix order="3,3" divisor="1" in="comp1" result="convolve" kernelMatrix="0 0 0 1 1 1 0 0 0"></feConvolveMatrix><feOffset dx="-3" dy="0" in="convolve" result="extrude"></feOffset><feComposite operator="in" in="flood-1" in2="extrude" result="comp-extrude"></feComposite><feFlood flood-color="#000000" result="flood-2"></feFlood><feComposite operator="in" in="flood-2" in2="SourceAlpha" result="comp2"></feComposite><feMorphology operator="dilate" radius="1" in="comp2" result="dilate"></feMorphology><feOffset dx="-4.5" dy="0" in="dilate" result="offset"></feOffset><feGaussianBlur in="offset" stdDeviation="5.8" result="blur"></feGaussianBlur><feComponentTransfer in="blur" result="shadow"><feFuncA type="linear" slope="0.8" intercept="-0.2"></feFuncA></feComponentTransfer><feMerge><feMergeNode in="shadow"></feMergeNode><feMergeNode in="comp-extrude"></feMergeNode><feMergeNode in="SourceGraphic"></feMergeNode></feMerge></filter></defs><g filter="url(#editing-extrude-glow)"><g transform="translate(117.362131357193, 99.00000190734863)"><path d="M14.21 0L0.51 0L8.32-42.05L8.32-42.05Q14.66-42.75 23.90-42.75L23.90-42.75L23.90-42.75Q33.15-42.75 37.44-40.06L37.44-40.06L37.44-40.06Q41.73-37.38 41.73-31.97L41.73-31.97L41.73-31.97Q41.73-26.56 38.94-23.17L38.94-23.17L38.94-23.17Q36.16-19.78 31.36-18.69L31.36-18.69L31.36-18.69Q32.45-13.38 34.94-9.09L34.94-9.09L34.94-9.09Q37.25-5.06 39.94-3.78L39.94-3.78L39.94-3.78Q38.98-1.09 37.02 0.10L37.02 0.10L37.02 0.10Q35.07 1.28 32.29 1.28L32.29 1.28L32.29 1.28Q29.50 1.28 27.33-0.35L27.33-0.35L27.33-0.35Q25.15-1.98 23.42-4.99L23.42-4.99L23.42-4.99Q19.78-11.52 19.39-21.82L19.39-21.82L19.84-21.82L19.84-21.82Q24.58-21.95 26.94-24.42L26.94-24.42L26.94-24.42Q29.31-26.88 29.31-32.06L29.31-32.06L29.31-32.06Q29.31-38.53 23.87-38.78L23.87-38.78L22.46-38.78L22.46-38.78Q21.89-38.78 21.57-38.72L21.57-38.72L14.21 0ZM70.59-10.82L70.59-10.82L70.59-10.82Q72.19-9.73 72.19-7.33L72.19-7.33L72.19-7.33Q72.19-4.93 70.98-3.39L70.98-3.39L70.98-3.39Q69.76-1.86 67.78-0.83L67.78-0.83L67.78-0.83Q63.68 1.28 59.26 1.28L59.26 1.28L59.26 1.28Q54.85 1.28 52.26 0.32L52.26 0.32L52.26 0.32Q49.66-0.64 47.94-2.43L47.94-2.43L47.94-2.43Q44.54-5.82 44.54-12.03L44.54-12.03L44.54-12.03Q44.54-21.70 49.79-27.58L49.79-27.58L49.79-27.58Q55.42-33.92 65.22-33.92L65.22-33.92L65.22-33.92Q71.30-33.92 74.30-31.36L74.30-31.36L74.30-31.36Q76.54-29.44 76.54-26.30L76.54-26.30L76.54-26.30Q76.54-15.04 57.09-15.04L57.09-15.04L57.09-15.04Q56.83-13.38 56.83-11.97L56.83-11.97L56.83-11.97Q56.83-9.02 58.14-7.90L58.14-7.90L58.14-7.90Q59.46-6.78 61.89-6.78L61.89-6.78L61.89-6.78Q64.32-6.78 66.91-7.90L66.91-7.90L66.91-7.90Q69.50-9.02 70.59-10.82ZM57.54-17.79L57.54-17.79L57.54-17.79Q62.08-17.79 64.70-20.61L64.70-20.61L64.70-20.61Q67.33-23.30 67.33-27.58L67.33-27.58L67.33-27.58Q67.33-29.06 66.78-29.86L66.78-29.86L66.78-29.86Q66.24-30.66 65.15-30.66L65.15-30.66L65.15-30.66Q64.06-30.66 63.14-30.24L63.14-30.24L63.14-30.24Q62.21-29.82 61.25-28.42L61.25-28.42L61.25-28.42Q58.88-25.22 57.54-17.79ZM97.86-22.46L97.86-22.46L97.86-22.46Q98.75-24.83 98.75-26.88L98.75-26.88L98.75-26.88Q98.75-30.66 95.68-30.66L95.68-30.66L95.68-30.66Q94.08-30.66 92.77-29.22L92.77-29.22L92.77-29.22Q91.46-27.78 91.46-25.98L91.46-25.98L91.46-25.98Q91.46-24.70 92.48-23.68L92.48-23.68L92.48-23.68Q93.95-22.27 97.73-19.97L97.73-19.97L97.73-19.97Q101.50-17.66 102.94-15.78L102.94-15.78L102.94-15.78Q104.38-13.89 104.38-11.30L104.38-11.30L104.38-11.30Q104.38-8.70 103.14-6.34L103.14-6.34L103.14-6.34Q101.89-3.97 99.65-2.30L99.65-2.30L99.65-2.30Q94.85 1.28 87.17 1.28L87.17 1.28L87.17 1.28Q83.01 1.28 79.81-0.90L79.81-0.90L79.81-0.90Q76.61-3.01 76.61-5.50L76.61-5.50L76.61-5.50Q76.61-8 78.43-9.47L78.43-9.47L78.43-9.47Q80.26-10.94 82.94-10.94L82.94-10.94L82.94-10.94Q85.63-10.94 87.30-9.92L87.30-9.92L87.30-9.92Q86.46-7.81 86.46-6.40L86.46-6.40L86.46-6.40Q86.46-2.18 90.05-2.18L90.05-2.18L90.05-2.18Q91.58-2.18 92.61-3.14L92.61-3.14L92.61-3.14Q93.63-4.10 93.63-5.76L93.63-5.76L93.63-5.76Q93.63-9.02 88.13-12.48L88.13-12.48L88.13-12.48Q83.65-15.42 82.62-16.58L82.62-16.58L82.62-16.58Q80.90-18.62 80.90-21.18L80.90-21.18L80.90-21.18Q80.90-23.74 82.11-26.18L82.11-26.18L82.11-26.18Q83.33-28.61 85.57-30.34L85.57-30.34L85.57-30.34Q90.24-33.92 98.37-33.92L98.37-33.92L98.37-33.92Q102.53-33.92 104.99-32.26L104.99-32.26L104.99-32.26Q107.46-30.59 107.46-27.78L107.46-27.78L107.46-27.78Q107.46-24.96 105.76-23.36L105.76-23.36L105.76-23.36Q104.06-21.76 100.99-21.76L100.99-21.76L100.99-21.76Q98.88-21.76 97.86-22.46ZM125.18-3.52L125.18-3.52L125.18-3.52Q123.20 1.28 116.86 1.28L116.86 1.28L116.86 1.28Q113.60 1.28 111.55-0.96L111.55-0.96L111.55-0.96Q109.82-2.94 109.82-4.93L109.82-4.93L109.82-4.93Q109.82-10.11 112.19-20.22L112.19-20.22L114.56-32.64L127.55-33.92L123.65-13.70L123.65-13.70Q122.56-8.96 122.56-7.30L122.56-7.30L122.56-7.30Q122.56-3.65 125.18-3.52ZM115.71-41.54L115.71-41.54L115.71-41.54Q115.71-44.03 117.79-45.38L117.79-45.38L117.79-45.38Q119.87-46.72 122.88-46.72L122.88-46.72L122.88-46.72Q125.89-46.72 127.71-45.38L127.71-45.38L127.71-45.38Q129.54-44.03 129.54-41.54L129.54-41.54L129.54-41.54Q129.54-39.04 127.52-37.76L127.52-37.76L127.52-37.76Q125.50-36.48 122.50-36.48L122.50-36.48L122.50-36.48Q119.49-36.48 117.60-37.76L117.60-37.76L117.60-37.76Q115.71-39.04 115.71-41.54ZM157.70 1.28L157.70 1.28L157.70 1.28Q149.95 1.28 149.95-4.74L149.95-4.74L149.95-4.74Q150.02-6.40 150.53-9.22L150.53-9.22L151.68-15.10L151.68-15.10Q153.41-23.42 153.41-25.28L153.41-25.28L153.41-25.28Q153.41-28.99 151.23-28.99L151.23-28.99L151.23-28.99Q147.58-28.99 145.66-19.46L145.66-19.46L141.89 0L129.02 1.28L135.68-32.70L146.18-33.92L145.15-27.65L145.15-27.65Q148.16-33.92 157.38-33.92L157.38-33.92L157.38-33.92Q161.86-33.92 163.74-32.03L163.74-32.03L163.74-32.03Q165.63-30.14 165.63-25.92L165.63-25.92L165.63-25.92Q165.63-21.95 163.58-12.67L163.58-12.67L163.58-12.67Q162.62-8.51 162.62-6.94L162.62-6.94L162.62-6.94Q162.62-5.38 163.49-4.48L163.49-4.48L163.49-4.48Q164.35-3.58 165.63-3.46L165.63-3.46L165.63-3.46Q164.99-1.28 162.78 0L162.78 0L162.78 0Q160.58 1.28 157.70 1.28ZM198.85 1.28L198.85 1.28L198.85 1.28Q190.66 1.28 189.89-10.37L189.89-10.37L178.88-10.37L178.88-10.37Q177.60-7.42 176.70-4.86L176.70-4.86L175.04 0L166.08 0L186.24-42.24L200-42.24L202.69-11.14L202.69-11.14Q203.33-4.42 205.89-2.43L205.89-2.43L205.89-2.43Q204.03 1.28 198.85 1.28ZM184.38-23.17L180.86-15.04L189.70-15.04L188.93-31.49L188.93-33.22L184.38-23.17ZM229.63-17.98L229.63-17.98L229.63-17.98Q231.94-22.08 231.94-26.24L231.94-26.24L231.94-26.24Q231.94-28.99 229.95-28.99L229.95-28.99L229.95-28.99Q228.42-28.99 226.82-26.37L226.82-26.37L226.82-26.37Q225.15-23.74 224.64-20.35L224.64-20.35L221.31 0L208.06 1.28L214.59-32.64L225.15-33.92L224-27.46L224-27.46Q227.14-33.92 234.18-33.92L234.18-33.92L234.18-33.92Q237.89-33.92 239.90-32L239.90-32L239.90-32Q241.92-30.08 241.92-26.14L241.92-26.14L241.92-26.14Q241.92-22.21 239.33-19.71L239.33-19.71L239.33-19.71Q236.74-17.22 232.32-17.22L232.32-17.22L232.32-17.22Q230.40-17.22 229.63-17.98ZM243.97-6.40L243.97-6.40L243.97-6.40Q243.97-8.13 244.86-12.48L244.86-12.48L248.26-29.76L244.48-29.76L244.74-31.68L244.74-31.68Q252.42-33.98 259.84-39.62L259.84-39.62L262.91-39.62L261.38-32.64L266.37-32.64L265.79-29.76L260.86-29.76L257.60-12.48L257.60-12.48Q256.77-8.51 256.77-7.17L256.77-7.17L256.77-7.17Q256.77-4.10 259.46-3.46L259.46-3.46L259.46-3.46Q258.82-1.28 256.51 0L256.51 0L256.51 0Q254.21 1.28 250.94 1.28L250.94 1.28L250.94 1.28Q247.68 1.28 245.82-0.77L245.82-0.77L245.82-0.77Q243.97-2.82 243.97-6.40Z" fill="#eb6c6c"></path></g></g><style>text {
  font-size: 64px;
  font-family: Arial Black;
  dominant-baseline: central;
  text-anchor: middle;
}</style></svg>